<svg width="23" height="358" fill="none" xmlns="http://www.w3.org/2000/svg"><g opacity=".502"><path d="M5.278 353.604c0-.744.138-1.38.414-1.908.276-.54.648-.948 1.116-1.224a2.865 2.865 0 011.53-.432c.732 0 1.338.216 1.818.648.468.42.786.984.954 1.692.072-.804.36-1.458.864-1.962s1.188-.756 2.052-.756c.696 0 1.326.168 1.89.504a3.519 3.519 0 011.332 1.44c.312.624.468 1.344.468 2.16 0 .732-.132 1.404-.396 2.016a4.506 4.506 0 01-1.224 1.602l-.918-.99c.408-.396.708-.798.9-1.206a3.25 3.25 0 00.288-1.368c0-.756-.21-1.35-.63-1.782-.432-.432-1.008-.648-1.728-.648-.792 0-1.35.204-1.674.612-.324.408-.486 1.002-.486 1.782v.9l-1.278-.198v-.612c0-.624-.186-1.14-.558-1.548-.372-.42-.894-.63-1.566-.63-.564 0-1.008.18-1.332.54-.336.36-.504.846-.504 1.458 0 .468.084.9.252 1.296.168.384.444.78.828 1.188l-.99.864c-.948-1.02-1.422-2.166-1.422-3.438zm7.938-21.88h1.314v1.566h2.97v1.602h-2.97v5.148h-1.188l-8.064-3.618.576-1.386 7.362 3.258v-3.42l-3.24-.144v-1.44h3.24v-1.566zm1.998-10.686c0-.36.12-.66.36-.9a1.2 1.2 0 01.882-.36c.348 0 .648.12.9.36.24.24.36.54.36.9a1.2 1.2 0 01-.36.882 1.26 1.26 0 01-.9.36 1.2 1.2 0 01-.882-.36 1.2 1.2 0 01-.36-.882zm-9.936-14.994c0-1.332.534-2.334 1.602-3.006 1.056-.684 2.592-1.026 4.608-1.026 2.016 0 3.558.342 4.626 1.026 1.068.672 1.602 1.674 1.602 3.006 0 1.332-.534 2.34-1.602 3.024-1.068.672-2.61 1.008-4.626 1.008-2.016 0-3.552-.336-4.608-1.008-1.068-.684-1.602-1.692-1.602-3.024zm1.314 0c0 .78.384 1.362 1.152 1.746.768.372 2.016.558 3.744.558 1.728 0 2.982-.186 3.762-.558.768-.384 1.152-.966 1.152-1.746 0-.768-.384-1.344-1.152-1.728-.78-.384-2.034-.576-3.762-.576-1.716 0-2.958.192-3.726.576-.78.384-1.17.96-1.17 1.728zm.162-20.575v4.698H10.3a4.186 4.186 0 01-.468-1.926c0-1.032.342-1.86 1.026-2.484.672-.624 1.602-.936 2.79-.936.792 0 1.5.174 2.124.522.612.348 1.092.84 1.44 1.476.336.624.504 1.35.504 2.178 0 .732-.126 1.386-.378 1.962a5.363 5.363 0 01-1.152 1.602l-.954-.972c.384-.384.672-.78.864-1.188a3.4 3.4 0 00.27-1.386c0-.768-.24-1.368-.72-1.8-.48-.444-1.158-.666-2.034-.666-.876 0-1.512.198-1.908.594-.396.396-.594.93-.594 1.602 0 .312.036.6.108.864.06.264.162.546.306.846v1.296H5.458v-6.516l1.296.234zM5.278 270.99c0-1.332.534-2.334 1.602-3.006 1.056-.684 2.592-1.026 4.608-1.026 2.016 0 3.558.342 4.626 1.026 1.068.672 1.602 1.674 1.602 3.006 0 1.332-.534 2.34-1.602 3.024-1.068.672-2.61 1.008-4.626 1.008-2.016 0-3.552-.336-4.608-1.008-1.068-.684-1.602-1.692-1.602-3.024zm1.314 0c0 .78.384 1.362 1.152 1.746.768.372 2.016.558 3.744.558 1.728 0 2.982-.186 3.762-.558.768-.384 1.152-.966 1.152-1.746 0-.768-.384-1.344-1.152-1.728-.78-.384-2.034-.576-3.762-.576-1.716 0-2.958.192-3.726.576-.78.384-1.17.96-1.17 1.728zm-1.134-18.829H17.5v1.656H7.222l1.71 2.808-1.17.72-2.304-3.726v-1.458zM17.5 210.93v2.286l-10.53 5.04a64.578 64.578 0 012.304-.162 37.756 37.756 0 012.538-.072H17.5v1.602H5.098v-2.232l10.548-5.094c-.312.036-.858.084-1.638.144-.78.06-1.494.09-2.142.09H5.098v-1.602H17.5zm-4.932-23.637h-1.404v-5.094h1.404v5.094zm-7.11-18.728H17.5v1.656H7.222l1.71 2.808-1.17.72-2.304-3.726v-1.458zm0-15.541H17.5v1.656H7.222l1.71 2.808-1.17.72-2.304-3.726v-1.458zm5.58-16.543c.684-1.692 1.764-2.538 3.24-2.538.66 0 1.254.18 1.782.54.516.348.924.84 1.224 1.476.288.636.432 1.356.432 2.16 0 .816-.144 1.536-.432 2.16-.288.624-.69 1.11-1.206 1.458a3.16 3.16 0 01-1.764.504c-.744 0-1.368-.198-1.872-.594-.504-.408-.924-1.002-1.26-1.782-.324.636-.714 1.11-1.17 1.422-.468.3-1.014.45-1.638.45-.648 0-1.206-.168-1.674-.504a3.278 3.278 0 01-1.062-1.35 4.549 4.549 0 01-.36-1.8c0-.624.114-1.212.342-1.764a3.127 3.127 0 011.044-1.368c.456-.348 1.008-.522 1.656-.522.6 0 1.116.168 1.548.504.432.336.822.852 1.17 1.548zm-4.518 1.602c0 .624.162 1.122.486 1.494.324.36.786.54 1.386.54.576 0 1.014-.174 1.314-.522.3-.36.576-.93.828-1.71l.108-.306c-.312-.54-.642-.93-.99-1.17-.348-.24-.774-.36-1.278-.36-.564 0-1.014.18-1.35.54-.336.348-.504.846-.504 1.494zm9.882.018c0-.744-.192-1.332-.576-1.764-.384-.444-.894-.666-1.53-.666-.432 0-.792.084-1.08.252-.3.168-.558.438-.774.81-.228.372-.456.894-.684 1.566l-.162.45c.288.6.654 1.044 1.098 1.332.432.288.972.432 1.62.432.66 0 1.176-.216 1.548-.648.36-.432.54-1.02.54-1.764zm-1.188-15.106c0-.36.12-.66.36-.9a1.2 1.2 0 01.882-.36c.348 0 .648.12.9.36.24.24.36.54.36.9a1.2 1.2 0 01-.36.882 1.26 1.26 0 01-.9.36 1.2 1.2 0 01-.882-.36 1.2 1.2 0 01-.36-.882zm-9.936-14.287c0-.72.144-1.35.432-1.89a3.15 3.15 0 012.862-1.728c.732 0 1.434.168 2.106.504.672.324 1.398.828 2.178 1.512s1.866 1.722 3.258 3.114v-5.418L17.5 105v7.11h-1.314c-1.668-1.608-2.886-2.748-3.654-3.42-.78-.672-1.458-1.152-2.034-1.44a4.089 4.089 0 00-1.854-.432c-.624 0-1.11.18-1.458.54-.36.36-.54.84-.54 1.44 0 .492.102.924.306 1.296.204.372.54.768 1.008 1.188l-.864 1.08c-.612-.491-1.068-1.038-1.368-1.638-.3-.6-.45-1.272-.45-2.016zm7.938-21.351h1.314v1.566h2.97v1.602h-2.97v5.148h-1.188l-8.064-3.618.576-1.386 7.362 3.258v-3.42l-3.24-.144v-1.44h3.24v-1.566zm0-17.58h1.314v1.566h2.97v1.602h-2.97v5.148h-1.188l-8.064-3.618.576-1.386 7.362 3.258v-3.42l-3.24-.145v-1.44h3.24v-1.566zM9.58 55.688c0-.612.144-1.17.432-1.674.288-.504.72-.906 1.296-1.206.576-.3 1.278-.45 2.106-.45.852 0 1.608.174 2.268.522a3.757 3.757 0 011.512 1.386c.348.576.522 1.218.522 1.926 0 1.404-.516 2.43-1.548 3.078-1.044.648-2.484.972-4.32.972-1.308 0-2.454-.18-3.438-.54-.996-.372-1.764-.9-2.304-1.584-.552-.684-.828-1.494-.828-2.43 0-.912.246-1.74.738-2.484l1.098.648a3.463 3.463 0 00-.522 1.854c0 .864.414 1.548 1.242 2.052.828.504 1.938.78 3.33.828-1.056-.744-1.584-1.71-1.584-2.898zm6.822.504c0-.696-.264-1.23-.792-1.602-.528-.372-1.242-.558-2.142-.558-1.716 0-2.574.648-2.574 1.944 0 .528.15 1.014.45 1.458.288.444.69.822 1.206 1.134 1.32-.036 2.292-.24 2.916-.612.624-.384.936-.972.936-1.764zM5.098 8.453l12.402 2.52v2.196L7.114 15.455 17.5 17.76v2.142l-12.402 2.52v-1.674l10.908-1.998-10.908-2.394v-1.818l10.908-2.448-10.908-2.07V8.453z" fill="#fff"/><path clip-rule="evenodd" d="M11 43a2.5 2.5 0 100-5 2.5 2.5 0 000 5zm0 199a2.5 2.5 0 100-5 2.5 2.5 0 000 5z" stroke="#fff"/></g></svg>