<svg width="1001" height="496" fill="none" xmlns="http://www.w3.org/2000/svg"><path d="M1008.08 163.448L443.182-356.858V-747.19L28.11-770c-3.206 7.544-23.743 29.286-20.538 41.404 3.858 14.494 23.267 9.861 28.906 19.187 6.588 10.989-4.749 55.66-8.132 68.549-6.47 24.415-21.25 44.195-25.524 68.61-7.182 40.987 7.36 37.72 34.902 63.323 46.417 43.185 9.2 87.975 20.894 138.704 9.497 41.345 50.987 62.669 66.182 104.012 11.753 31.841 27.897 39.978 52.946 63.264-.593-14.137-13.236-55.838 10.507-52.155 23.564 3.624 14.483 38.433 18.994 52.987 3.798 12.118 30.686 36.354 8.369 47.522-7.42 3.683-28.55-10.989-37.039-14.91 5.995 18.712 2.197 38.136 11.694 56.016 11.337 21.325 23.564 13.128 38.582 24.712 15.491 11.94 13.83 25.661 6.944 43.72-7.182 18.83-14.601 15.92-3.205 38.612 8.251 16.394 22.258 37.185 34.308 49.66 7.004 7.246 14.602 8.91 21.606 18.176 5.817 7.722 3.561 17.821 10.506 24.77 11.871 11.94 31.994 12.119 41.372 27.741 10.447 17.405-1.424 30.533 29.322 28.929 1.603 34.81 8.191 66.352 7.835 101.161 17.154 6.831 44.873-1.307 62.858-4.931 17.867 24.117 40.956 7.366 61.375 20.495 8.904 5.702 7.063 19.959 12.465 24.948 11.1 10.217 19.29 3.802 33.062 7.366 10.209 2.614 18.103 10.098 27.837 12.831 9.2 2.554 24.337-3.445 31.163 4.693 8.191 9.742-5.521 27.562 6.826 35.403 10.268 6.534 24.988-9.029 34.961-6.772 11.633 2.673 44.991 33.147 53.183 43.185 9.319 11.465 18.698 32.85 23.979 47.581 8.251 23.048 7.123 34.334 24.158 51.205 10.862 10.752.534 11.524 18.222 14.672 11.574 2.079 26.888-6.296 38.582-7.603 24.337-2.673 48.91 1.96 72.89-2.614 22.319-4.277 43.627-11.287 66.538-14.554 19.825-2.851 54.73-.653 72.3-10.098 19.05-10.158 20.77-33.147-6.77-28.869-2.2-14.672 7.6-34.929-3.32-45.085 15.19-20.791 20.71-35.463 23.08-60.888 1.07-11.167 1.55-23.523 7.07-32.909 5.4-9.267 20.59-14.791 23.56-22.751 4.57-12.356-2.73-17.88-8.31-24.771-3.56-4.455-13.71-2.316-16.62-6.237-5.4-7.188-.06-14.613-3.03-21.86-8.66-20.969-18.99-29.226-25.52-52.987.18 3.98.36 8.019.12 11.94" stroke="#fff" stroke-width="2" stroke-linecap="round" stroke-linejoin="round"/></svg>