<svg width="205" height="236" fill="none" xmlns="http://www.w3.org/2000/svg"><path d="M172.114.94c-8.568 23.38 11.5 31.585 27.561 46.867 4.759 4.529 5.213 12.01.204 16.535-10.772 9.732-51.615-4.425-49.025 8.403 2.676 13.25 37.207 31.786 38.764 33.054 13.666 11.133 18.117 39.375 10.59 54.859-5.356 11.018-40.866 7.304-52.036 3.635-73.148-24.027-40.187-21.162-122.355-28.623-6.29-.571-12.882-.864-18.923.98-6.223 1.899-6.025 9.689-3.937 13.9 6.919 13.956 37.892 37.628 29.557 55.973-2.558 5.629-8.551 9.184-11.25 14.747-2.113 4.357-1.88 9.502-2.819 14.253" stroke="#fff" stroke-width="2"/></svg>