<svg width="172" height="64" fill="none" xmlns="http://www.w3.org/2000/svg"><path fill="#4AF6CD" d="M61 0h111v64H61z"/><path d="M88.408 21.184c1.685 0 3.168.245 4.448.736a10.198 10.198 0 013.488 2.208l-2.656 3.136c-1.536-1.216-3.147-1.824-4.832-1.824-.875 0-1.547.17-2.016.512-.448.32-.672.779-.672 1.376 0 .427.117.779.352 1.056s.63.544 1.184.8c.555.256 1.43.576 2.624.96 2.283.725 3.947 1.643 4.992 2.752 1.067 1.088 1.6 2.603 1.6 4.544 0 1.408-.363 2.656-1.088 3.744-.725 1.067-1.781 1.899-3.168 2.496-1.365.597-2.976.896-4.832.896-3.541 0-6.432-1.077-8.672-3.232l2.912-3.232c1.77 1.45 3.616 2.176 5.536 2.176 1.003 0 1.781-.213 2.336-.64.555-.448.832-1.035.832-1.76 0-.512-.107-.928-.32-1.248-.213-.341-.597-.64-1.152-.896-.533-.277-1.323-.576-2.368-.896-2.517-.79-4.288-1.739-5.312-2.848-1.024-1.11-1.536-2.507-1.536-4.192 0-1.323.352-2.485 1.056-3.488.725-1.003 1.717-1.77 2.976-2.304 1.28-.555 2.71-.832 4.288-.832zm28.483 15.36c0 1.536-.342 2.912-1.024 4.128-.662 1.216-1.664 2.176-3.008 2.88-1.344.683-2.987 1.024-4.928 1.024-2.944 0-5.174-.715-6.688-2.144-1.515-1.45-2.272-3.413-2.272-5.888V21.76h5.92v14.592c0 1.344.234 2.336.704 2.976.49.619 1.269.928 2.336.928 1.066 0 1.834-.32 2.304-.96.469-.64.704-1.621.704-2.944V21.76h5.952v14.784zm10.67-.736h-1.632V44h-5.92V21.76h7.712c3.136 0 5.472.565 7.008 1.696 1.558 1.13 2.336 2.87 2.336 5.216 0 1.408-.33 2.581-.992 3.52-.64.939-1.674 1.781-3.104 2.528l5.536 9.28h-6.592l-4.352-8.192zm-1.632-4.032h1.984c2.048 0 3.072-1.035 3.072-3.104 0-.96-.288-1.664-.864-2.112-.554-.448-1.397-.672-2.528-.672h-1.664v5.888zM139.853 44V21.76h13.664l-.608 4.192h-7.136v5.344h6.272v4.192h-6.272V44h-5.92zM11.776 21.184c2.965 0 5.515.939 7.648 2.816l-2.912 3.04c-.81-.576-1.547-.992-2.208-1.248-.64-.277-1.376-.416-2.208-.416-1.6 0-2.859.619-3.776 1.856-.896 1.237-1.344 3.125-1.344 5.664 0 1.856.15 3.328.448 4.416.299 1.067.747 1.835 1.344 2.304.619.47 1.408.704 2.368.704s1.835-.203 2.624-.608v-4.576h-2.528l-.576-4.064h8.832v11.072c-1.152.768-2.453 1.365-3.904 1.792-1.45.427-2.88.64-4.288.64-6.955 0-10.432-3.904-10.432-11.712 0-2.432.47-4.523 1.408-6.272.96-1.77 2.261-3.115 3.904-4.032 1.643-.917 3.51-1.376 5.6-1.376zm20.045 0c3.222 0 5.728 1.024 7.52 3.072 1.792 2.048 2.688 4.917 2.688 8.608 0 2.41-.405 4.501-1.216 6.272-.79 1.75-1.952 3.093-3.488 4.032-1.536.939-3.37 1.408-5.504 1.408-3.221 0-5.728-1.024-7.52-3.072-1.77-2.048-2.656-4.928-2.656-8.64 0-2.41.395-4.49 1.184-6.24.81-1.75 1.974-3.093 3.488-4.032 1.536-.939 3.37-1.408 5.504-1.408zm0 4.256c-1.386 0-2.41.576-3.072 1.728-.64 1.152-.96 3.05-.96 5.696 0 2.645.33 4.555.992 5.728.662 1.152 1.675 1.728 3.04 1.728 1.408 0 2.432-.576 3.072-1.728.64-1.152.96-3.061.96-5.728 0-2.645-.32-4.544-.96-5.696-.64-1.152-1.664-1.728-3.072-1.728zM51 32h20v1H51z" fill="#fff"/></svg>